<?xml version="1.0" encoding="utf-8"?>
<!-- Generator: Adobe Illustrator 16.0.1, SVG Export Plug-In . SVG Version: 6.00 Build 0)  -->
<!DOCTYPE svg PUBLIC "-//W3C//DTD SVG 1.1//EN" "http://www.w3.org/Graphics/SVG/1.1/DTD/svg11.dtd">
<svg version="1.1" id="Layer_1" xmlns="http://www.w3.org/2000/svg" xmlns:xlink="http://www.w3.org/1999/xlink" x="0px" y="0px"
	 width="139px" height="117px" viewBox="0 0 139 117" enable-background="new 0 0 139 117" xml:space="preserve">
<g>
	
		<linearGradient id="SVGID_1_" gradientUnits="userSpaceOnUse" x1="722.5" y1="533.501" x2="722.5" y2="495.501" gradientTransform="matrix(1 0 0 1 -653 -495)">
		<stop  offset="0" style="stop-color:#993300"/>
		<stop  offset="0.5" style="stop-color:#FF6600"/>
		<stop  offset="1" style="stop-color:#FF9900"/>
	</linearGradient>
	<path fill="url(#SVGID_1_)" d="M4,38.5c-1.93,0-3.5-1.57-3.5-3.5V4c0-1.93,1.57-3.5,3.5-3.5h131c1.93,0,3.5,1.57,3.5,3.5v31
		c0,1.93-1.57,3.5-3.5,3.5H4z"/>
	<path d="M135,1c1.654,0,3,1.346,3,3v31c0,1.654-1.346,3-3,3H4c-1.654,0-3-1.346-3-3V4c0-1.654,1.346-3,3-3H135 M135,0H4
		C1.791,0,0,1.791,0,4v31c0,2.209,1.791,4,4,4h131c2.209,0,4-1.791,4-4V4C139,1.791,137.209,0,135,0L135,0z"/>
</g>
<g opacity="0.5">
	<g>
		<g enable-background="new    ">
			<path d="M21.369,13.151h5.353c3.24,0,5.76,0.888,5.76,3.889c0,1.392-0.792,2.904-2.616,3.384v0.097
				c2.232,0.407,3.384,1.584,3.384,3.672c0,3.192-2.688,4.608-6.072,4.608h-5.809V13.151z M26.553,19.464
				c1.728,0,2.472-0.744,2.472-1.92s-0.792-1.656-2.448-1.656h-1.68v3.576H26.553z M26.889,26.064c1.92,0,2.904-0.72,2.904-2.136
				c0-1.368-0.96-1.969-2.904-1.969h-1.992v4.104H26.889z"/>
			<path d="M35.792,13.151h3.553v8.761c0,3.072,0.96,4.129,2.712,4.129c1.752,0,2.76-1.057,2.76-4.129v-8.761h3.408v8.4
				c0,5.257-2.136,7.537-6.168,7.537c-4.056,0-6.265-2.28-6.265-7.537V13.151z"/>
			<path d="M54.105,23.232l-4.729-10.081h3.792l1.392,3.601c0.432,1.176,0.84,2.256,1.272,3.456h0.096
				c0.456-1.2,0.888-2.28,1.32-3.456l1.416-3.601h3.696l-4.729,10.081v5.568h-3.528V23.232z"/>
			<path d="M69.008,13.151h3.625l4.08,7.776l1.536,3.457h0.097c-0.145-1.656-0.433-3.864-0.433-5.713v-5.521h3.36v15.649h-3.625
				L73.568,21l-1.535-3.408h-0.097c0.144,1.729,0.433,3.816,0.433,5.664v5.545h-3.361V13.151z"/>
			<path d="M84.225,20.904c0-5.112,2.88-8.041,7.104-8.041c4.224,0,7.104,2.952,7.104,8.041c0,5.112-2.881,8.185-7.104,8.185
				C87.104,29.089,84.225,26.017,84.225,20.904z M94.81,20.904c0-3.12-1.345-4.992-3.48-4.992s-3.48,1.872-3.48,4.992
				c0,3.145,1.345,5.137,3.48,5.137S94.81,24.049,94.81,20.904z"/>
			<path d="M99.872,13.151h3.624l1.08,7.32c0.192,1.633,0.433,3.289,0.624,4.944h0.097c0.312-1.655,0.624-3.312,0.936-4.944
				l1.681-7.32h3l1.68,7.32c0.312,1.585,0.625,3.265,0.937,4.944h0.096c0.217-1.68,0.433-3.336,0.648-4.944l1.08-7.32h3.384
				l-2.784,15.649h-4.44l-1.536-7.104c-0.264-1.2-0.456-2.473-0.624-3.624h-0.096c-0.191,1.151-0.384,2.424-0.647,3.624
				l-1.465,7.104h-4.368L99.872,13.151z"/>
		</g>
	</g>
</g>
<g>
	<g>
		<g enable-background="new    ">
			<path fill="#FFFFFF" d="M21.369,11.151h5.353c3.24,0,5.76,0.888,5.76,3.889c0,1.392-0.792,2.904-2.616,3.384v0.097
				c2.232,0.407,3.384,1.584,3.384,3.672c0,3.192-2.688,4.608-6.072,4.608h-5.809V11.151z M26.553,17.464
				c1.728,0,2.472-0.744,2.472-1.92s-0.792-1.656-2.448-1.656h-1.68v3.576H26.553z M26.889,24.064c1.92,0,2.904-0.72,2.904-2.136
				c0-1.368-0.96-1.969-2.904-1.969h-1.992v4.104H26.889z"/>
			<path fill="#FFFFFF" d="M35.792,11.151h3.553v8.761c0,3.072,0.96,4.129,2.712,4.129c1.752,0,2.76-1.057,2.76-4.129v-8.761h3.408
				v8.4c0,5.257-2.136,7.537-6.168,7.537c-4.056,0-6.265-2.28-6.265-7.537V11.151z"/>
			<path fill="#FFFFFF" d="M54.105,21.232l-4.729-10.081h3.792l1.392,3.601c0.432,1.176,0.84,2.256,1.272,3.456h0.096
				c0.456-1.2,0.888-2.28,1.32-3.456l1.416-3.601h3.696l-4.729,10.081v5.568h-3.528V21.232z"/>
			<path fill="#FFFFFF" d="M69.008,11.151h3.625l4.08,7.776l1.536,3.457h0.097c-0.145-1.656-0.433-3.864-0.433-5.713v-5.521h3.36
				v15.649h-3.625L73.568,19l-1.535-3.408h-0.097c0.144,1.729,0.433,3.816,0.433,5.664v5.545h-3.361V11.151z"/>
			<path fill="#FFFFFF" d="M84.225,18.904c0-5.112,2.88-8.041,7.104-8.041c4.224,0,7.104,2.952,7.104,8.041
				c0,5.112-2.881,8.185-7.104,8.185C87.104,27.089,84.225,24.017,84.225,18.904z M94.81,18.904c0-3.12-1.345-4.992-3.48-4.992
				s-3.48,1.872-3.48,4.992c0,3.145,1.345,5.137,3.48,5.137S94.81,22.049,94.81,18.904z"/>
			<path fill="#FFFFFF" d="M99.872,11.151h3.624l1.08,7.32c0.192,1.633,0.433,3.289,0.624,4.944h0.097
				c0.312-1.655,0.624-3.312,0.936-4.944l1.681-7.32h3l1.68,7.32c0.312,1.585,0.625,3.265,0.937,4.944h0.096
				c0.217-1.68,0.433-3.336,0.648-4.944l1.08-7.32h3.384l-2.784,15.649h-4.44l-1.536-7.104c-0.264-1.2-0.456-2.473-0.624-3.624
				h-0.096c-0.191,1.151-0.384,2.424-0.647,3.624l-1.465,7.104h-4.368L99.872,11.151z"/>
		</g>
	</g>
</g>
<g>
	<path fill="#FF6600" d="M4,77.5c-1.93,0-3.5-1.57-3.5-3.5V43c0-1.93,1.57-3.5,3.5-3.5h131c1.93,0,3.5,1.57,3.5,3.5v31
		c0,1.93-1.57,3.5-3.5,3.5H4z"/>
	<path d="M135,40c1.654,0,3,1.346,3,3v31c0,1.654-1.346,3-3,3H4c-1.654,0-3-1.346-3-3V43c0-1.654,1.346-3,3-3H135 M135,39H4
		c-2.209,0-4,1.791-4,4v31c0,2.209,1.791,4,4,4h131c2.209,0,4-1.791,4-4V43C139,40.791,137.209,39,135,39L135,39z"/>
</g>
<g opacity="0.5">
	<g>
		<g enable-background="new    ">
			<path d="M21.369,52.151h5.353c3.24,0,5.76,0.888,5.76,3.889c0,1.392-0.792,2.904-2.616,3.384v0.097
				c2.232,0.407,3.384,1.584,3.384,3.672c0,3.192-2.688,4.608-6.072,4.608h-5.809V52.151z M26.553,58.464
				c1.728,0,2.472-0.744,2.472-1.92s-0.792-1.656-2.448-1.656h-1.68v3.576H26.553z M26.889,65.064c1.92,0,2.904-0.72,2.904-2.136
				c0-1.368-0.96-1.969-2.904-1.969h-1.992v4.104H26.889z"/>
			<path d="M35.792,52.151h3.553v8.761c0,3.072,0.96,4.129,2.712,4.129c1.752,0,2.76-1.057,2.76-4.129v-8.761h3.408v8.4
				c0,5.257-2.136,7.537-6.168,7.537c-4.056,0-6.265-2.28-6.265-7.537V52.151z"/>
			<path d="M54.105,62.232l-4.729-10.081h3.792l1.392,3.601c0.432,1.176,0.84,2.256,1.272,3.456h0.096
				c0.456-1.2,0.888-2.28,1.32-3.456l1.416-3.601h3.696l-4.729,10.081v5.568h-3.528V62.232z"/>
			<path d="M69.008,52.151h3.625l4.08,7.776l1.536,3.457h0.097c-0.145-1.656-0.433-3.864-0.433-5.713v-5.521h3.36v15.649h-3.625
				L73.568,60l-1.535-3.408h-0.097c0.144,1.729,0.433,3.816,0.433,5.664v5.545h-3.361V52.151z"/>
			<path d="M84.225,59.904c0-5.112,2.88-8.041,7.104-8.041c4.224,0,7.104,2.952,7.104,8.041c0,5.112-2.881,8.185-7.104,8.185
				C87.104,68.089,84.225,65.017,84.225,59.904z M94.81,59.904c0-3.12-1.345-4.992-3.48-4.992s-3.48,1.872-3.48,4.992
				c0,3.145,1.345,5.137,3.48,5.137S94.81,63.049,94.81,59.904z"/>
			<path d="M99.872,52.151h3.624l1.08,7.32c0.192,1.633,0.433,3.289,0.624,4.944h0.097c0.312-1.655,0.624-3.312,0.936-4.944
				l1.681-7.32h3l1.68,7.32c0.312,1.585,0.625,3.265,0.937,4.944h0.096c0.217-1.68,0.433-3.336,0.648-4.944l1.08-7.32h3.384
				l-2.784,15.649h-4.44l-1.536-7.104c-0.264-1.2-0.456-2.473-0.624-3.624h-0.096c-0.191,1.151-0.384,2.424-0.647,3.624
				l-1.465,7.104h-4.368L99.872,52.151z"/>
		</g>
	</g>
</g>
<g>
	<g>
		<g enable-background="new    ">
			<path fill="#FFFFFF" d="M21.369,50.151h5.353c3.24,0,5.76,0.888,5.76,3.889c0,1.392-0.792,2.904-2.616,3.384v0.097
				c2.232,0.407,3.384,1.584,3.384,3.672c0,3.192-2.688,4.608-6.072,4.608h-5.809V50.151z M26.553,56.464
				c1.728,0,2.472-0.744,2.472-1.92s-0.792-1.656-2.448-1.656h-1.68v3.576H26.553z M26.889,63.064c1.92,0,2.904-0.72,2.904-2.136
				c0-1.368-0.96-1.969-2.904-1.969h-1.992v4.104H26.889z"/>
			<path fill="#FFFFFF" d="M35.792,50.151h3.553v8.761c0,3.072,0.96,4.129,2.712,4.129c1.752,0,2.76-1.057,2.76-4.129v-8.761h3.408
				v8.4c0,5.257-2.136,7.537-6.168,7.537c-4.056,0-6.265-2.28-6.265-7.537V50.151z"/>
			<path fill="#FFFFFF" d="M54.105,60.232l-4.729-10.081h3.792l1.392,3.601c0.432,1.176,0.84,2.256,1.272,3.456h0.096
				c0.456-1.2,0.888-2.28,1.32-3.456l1.416-3.601h3.696l-4.729,10.081v5.568h-3.528V60.232z"/>
			<path fill="#FFFFFF" d="M69.008,50.151h3.625l4.08,7.776l1.536,3.457h0.097c-0.145-1.656-0.433-3.864-0.433-5.713v-5.521h3.36
				v15.649h-3.625L73.568,58l-1.535-3.408h-0.097c0.144,1.729,0.433,3.816,0.433,5.664v5.545h-3.361V50.151z"/>
			<path fill="#FFFFFF" d="M84.225,57.904c0-5.112,2.88-8.041,7.104-8.041c4.224,0,7.104,2.952,7.104,8.041
				c0,5.112-2.881,8.185-7.104,8.185C87.104,66.089,84.225,63.017,84.225,57.904z M94.81,57.904c0-3.12-1.345-4.992-3.48-4.992
				s-3.48,1.872-3.48,4.992c0,3.145,1.345,5.137,3.48,5.137S94.81,61.049,94.81,57.904z"/>
			<path fill="#FFFFFF" d="M99.872,50.151h3.624l1.08,7.32c0.192,1.633,0.433,3.289,0.624,4.944h0.097
				c0.312-1.655,0.624-3.312,0.936-4.944l1.681-7.32h3l1.68,7.32c0.312,1.585,0.625,3.265,0.937,4.944h0.096
				c0.217-1.68,0.433-3.336,0.648-4.944l1.08-7.32h3.384l-2.784,15.649h-4.44l-1.536-7.104c-0.264-1.2-0.456-2.473-0.624-3.624
				h-0.096c-0.191,1.151-0.384,2.424-0.647,3.624l-1.465,7.104h-4.368L99.872,50.151z"/>
		</g>
	</g>
</g>
<g>
	
		<linearGradient id="SVGID_2_" gradientUnits="userSpaceOnUse" x1="722.5" y1="573.5" x2="722.5" y2="611.5" gradientTransform="matrix(1 0 0 1 -653 -495)">
		<stop  offset="0" style="stop-color:#663300"/>
		<stop  offset="1" style="stop-color:#CC6600"/>
	</linearGradient>
	<path fill="url(#SVGID_2_)" d="M4,116.5c-1.93,0-3.5-1.57-3.5-3.5V82c0-1.93,1.57-3.5,3.5-3.5h131c1.93,0,3.5,1.57,3.5,3.5v31
		c0,1.93-1.57,3.5-3.5,3.5H4z"/>
	<path d="M135,79c1.654,0,3,1.346,3,3v31c0,1.654-1.346,3-3,3H4c-1.654,0-3-1.346-3-3V82c0-1.654,1.346-3,3-3H135 M135,78H4
		c-2.209,0-4,1.791-4,4v31c0,2.209,1.791,4,4,4h131c2.209,0,4-1.791,4-4V82C139,79.791,137.209,78,135,78L135,78z"/>
</g>
<g opacity="0.5">
	<g>
		<g enable-background="new    ">
			<path d="M21.369,91.151h5.353c3.24,0,5.76,0.888,5.76,3.889c0,1.392-0.792,2.904-2.616,3.384v0.097
				c2.232,0.407,3.384,1.584,3.384,3.672c0,3.192-2.688,4.608-6.072,4.608h-5.809V91.151z M26.553,97.464
				c1.728,0,2.472-0.744,2.472-1.92s-0.792-1.656-2.448-1.656h-1.68v3.576H26.553z M26.889,104.064c1.92,0,2.904-0.72,2.904-2.136
				c0-1.368-0.96-1.969-2.904-1.969h-1.992v4.104H26.889z"/>
			<path d="M35.792,91.151h3.553v8.761c0,3.072,0.96,4.129,2.712,4.129c1.752,0,2.76-1.057,2.76-4.129v-8.761h3.408v8.4
				c0,5.257-2.136,7.537-6.168,7.537c-4.056,0-6.265-2.28-6.265-7.537V91.151z"/>
			<path d="M54.105,101.232l-4.729-10.081h3.792l1.392,3.601c0.432,1.176,0.84,2.256,1.272,3.456h0.096
				c0.456-1.2,0.888-2.28,1.32-3.456l1.416-3.601h3.696l-4.729,10.081v5.568h-3.528V101.232z"/>
			<path d="M69.008,91.151h3.625l4.08,7.776l1.536,3.457h0.097c-0.145-1.656-0.433-3.864-0.433-5.713v-5.521h3.36v15.649h-3.625
				L73.568,99l-1.535-3.408h-0.097c0.144,1.729,0.433,3.816,0.433,5.664v5.545h-3.361V91.151z"/>
			<path d="M84.225,98.904c0-5.112,2.88-8.041,7.104-8.041c4.224,0,7.104,2.952,7.104,8.041c0,5.112-2.881,8.185-7.104,8.185
				C87.104,107.089,84.225,104.017,84.225,98.904z M94.81,98.904c0-3.12-1.345-4.992-3.48-4.992s-3.48,1.872-3.48,4.992
				c0,3.145,1.345,5.137,3.48,5.137S94.81,102.049,94.81,98.904z"/>
			<path d="M99.872,91.151h3.624l1.08,7.32c0.192,1.633,0.433,3.289,0.624,4.944h0.097c0.312-1.655,0.624-3.312,0.936-4.944
				l1.681-7.32h3l1.68,7.32c0.312,1.585,0.625,3.265,0.937,4.944h0.096c0.217-1.68,0.433-3.336,0.648-4.944l1.08-7.32h3.384
				l-2.784,15.649h-4.44l-1.536-7.104c-0.264-1.2-0.456-2.473-0.624-3.624h-0.096c-0.191,1.151-0.384,2.424-0.647,3.624
				l-1.465,7.104h-4.368L99.872,91.151z"/>
		</g>
	</g>
</g>
<g>
	<g>
		<g enable-background="new    ">
			<path fill="#FFFFFF" d="M21.369,89.151h5.353c3.24,0,5.76,0.888,5.76,3.889c0,1.392-0.792,2.904-2.616,3.384v0.097
				c2.232,0.407,3.384,1.584,3.384,3.672c0,3.192-2.688,4.608-6.072,4.608h-5.809V89.151z M26.553,95.464
				c1.728,0,2.472-0.744,2.472-1.92s-0.792-1.656-2.448-1.656h-1.68v3.576H26.553z M26.889,102.064c1.92,0,2.904-0.72,2.904-2.136
				c0-1.368-0.96-1.969-2.904-1.969h-1.992v4.104H26.889z"/>
			<path fill="#FFFFFF" d="M35.792,89.151h3.553v8.761c0,3.072,0.96,4.129,2.712,4.129c1.752,0,2.76-1.057,2.76-4.129v-8.761h3.408
				v8.4c0,5.257-2.136,7.537-6.168,7.537c-4.056,0-6.265-2.28-6.265-7.537V89.151z"/>
			<path fill="#FFFFFF" d="M54.105,99.232l-4.729-10.081h3.792l1.392,3.601c0.432,1.176,0.84,2.256,1.272,3.456h0.096
				c0.456-1.2,0.888-2.28,1.32-3.456l1.416-3.601h3.696l-4.729,10.081v5.568h-3.528V99.232z"/>
			<path fill="#FFFFFF" d="M69.008,89.151h3.625l4.08,7.776l1.536,3.457h0.097c-0.145-1.656-0.433-3.864-0.433-5.713v-5.521h3.36
				v15.649h-3.625L73.568,97l-1.535-3.408h-0.097c0.144,1.729,0.433,3.816,0.433,5.664v5.545h-3.361V89.151z"/>
			<path fill="#FFFFFF" d="M84.225,96.904c0-5.112,2.88-8.041,7.104-8.041c4.224,0,7.104,2.952,7.104,8.041
				c0,5.112-2.881,8.185-7.104,8.185C87.104,105.089,84.225,102.017,84.225,96.904z M94.81,96.904c0-3.12-1.345-4.992-3.48-4.992
				s-3.48,1.872-3.48,4.992c0,3.145,1.345,5.137,3.48,5.137S94.81,100.049,94.81,96.904z"/>
			<path fill="#FFFFFF" d="M99.872,89.151h3.624l1.08,7.32c0.192,1.633,0.433,3.289,0.624,4.944h0.097
				c0.312-1.655,0.624-3.312,0.936-4.944l1.681-7.32h3l1.68,7.32c0.312,1.585,0.625,3.265,0.937,4.944h0.096
				c0.217-1.68,0.433-3.336,0.648-4.944l1.08-7.32h3.384l-2.784,15.649h-4.44l-1.536-7.104c-0.264-1.2-0.456-2.473-0.624-3.624
				h-0.096c-0.191,1.151-0.384,2.424-0.647,3.624l-1.465,7.104h-4.368L99.872,89.151z"/>
		</g>
	</g>
</g>
</svg>
