<?xml version="1.0" encoding="utf-8"?>
<!-- Generator: Adobe Illustrator 16.0.1, SVG Export Plug-In . SVG Version: 6.00 Build 0)  -->
<!DOCTYPE svg PUBLIC "-//W3C//DTD SVG 1.1//EN" "http://www.w3.org/Graphics/SVG/1.1/DTD/svg11.dtd">
<svg version="1.1" id="Layer_1" xmlns="http://www.w3.org/2000/svg" xmlns:xlink="http://www.w3.org/1999/xlink" x="0px" y="0px"
	 width="139px" height="117px" viewBox="0 0 139 117" enable-background="new 0 0 139 117" xml:space="preserve">
<g>
	
		<linearGradient id="SVGID_1_" gradientUnits="userSpaceOnUse" x1="722.5" y1="533.501" x2="722.5" y2="495.501" gradientTransform="matrix(1 0 0 1 -653 -495)">
		<stop  offset="0" style="stop-color:#993300"/>
		<stop  offset="0.5" style="stop-color:#FF6600"/>
		<stop  offset="1" style="stop-color:#FF9900"/>
	</linearGradient>
	<path fill="url(#SVGID_1_)" d="M4,38.5c-1.93,0-3.5-1.57-3.5-3.5V4c0-1.93,1.57-3.5,3.5-3.5h131c1.93,0,3.5,1.57,3.5,3.5v31
		c0,1.93-1.57,3.5-3.5,3.5H4z"/>
	<path d="M135,1c1.654,0,3,1.346,3,3v31c0,1.654-1.346,3-3,3H4c-1.654,0-3-1.346-3-3V4c0-1.654,1.346-3,3-3H135 M135,0H4
		C1.791,0,0,1.791,0,4v31c0,2.209,1.791,4,4,4h131c2.209,0,4-1.791,4-4V4C139,1.791,137.209,0,135,0L135,0z"/>
</g>
<g opacity="0.5">
	<g>
		<text transform="matrix(1 0 0 1 40.6523 28.8008)" font-family="'SourceSansPro-Bold'" font-size="24">SEND</text>
	</g>
</g>
<g>
	<g>
		<text transform="matrix(1 0 0 1 40.6523 26.8008)" fill="#FFFFFF" font-family="'SourceSansPro-Bold'" font-size="24">SEND</text>
	</g>
</g>
<g>
	<path fill="#FF6600" d="M4,77.5c-1.93,0-3.5-1.57-3.5-3.5V43c0-1.93,1.57-3.5,3.5-3.5h131c1.93,0,3.5,1.57,3.5,3.5v31
		c0,1.93-1.57,3.5-3.5,3.5H4z"/>
	<path d="M135,40c1.654,0,3,1.346,3,3v31c0,1.654-1.346,3-3,3H4c-1.654,0-3-1.346-3-3V43c0-1.654,1.346-3,3-3H135 M135,39H4
		c-2.209,0-4,1.791-4,4v31c0,2.209,1.791,4,4,4h131c2.209,0,4-1.791,4-4V43C139,40.791,137.209,39,135,39L135,39z"/>
</g>
<g opacity="0.5">
	<g>
		<text transform="matrix(1 0 0 1 40.6523 67.8008)" font-family="'SourceSansPro-Bold'" font-size="24">SEND</text>
	</g>
</g>
<g>
	<g>
		<text transform="matrix(1 0 0 1 40.6523 65.8008)" fill="#FFFFFF" font-family="'SourceSansPro-Bold'" font-size="24">SEND</text>
	</g>
</g>
<g>
	
		<linearGradient id="SVGID_2_" gradientUnits="userSpaceOnUse" x1="722.5" y1="573.5" x2="722.5" y2="611.5" gradientTransform="matrix(1 0 0 1 -653 -495)">
		<stop  offset="0" style="stop-color:#663300"/>
		<stop  offset="1" style="stop-color:#CC6600"/>
	</linearGradient>
	<path fill="url(#SVGID_2_)" d="M4,116.5c-1.93,0-3.5-1.57-3.5-3.5V82c0-1.93,1.57-3.5,3.5-3.5h131c1.93,0,3.5,1.57,3.5,3.5v31
		c0,1.93-1.57,3.5-3.5,3.5H4z"/>
	<path d="M135,79c1.654,0,3,1.346,3,3v31c0,1.654-1.346,3-3,3H4c-1.654,0-3-1.346-3-3V82c0-1.654,1.346-3,3-3H135 M135,78H4
		c-2.209,0-4,1.791-4,4v31c0,2.209,1.791,4,4,4h131c2.209,0,4-1.791,4-4V82C139,79.791,137.209,78,135,78L135,78z"/>
</g>
<g opacity="0.5">
	<g>
		<text transform="matrix(1 0 0 1 40.6523 106.8008)" font-family="'SourceSansPro-Bold'" font-size="24">SEND</text>
	</g>
</g>
<g>
	<g>
		<text transform="matrix(1 0 0 1 40.6523 104.8008)" fill="#FFFFFF" font-family="'SourceSansPro-Bold'" font-size="24">SEND</text>
	</g>
</g>
</svg>
